<?xml version="1.0" standalone="no"?><!DOCTYPE svg PUBLIC "-//W3C//DTD SVG 1.1//EN" "http://www.w3.org/Graphics/SVG/1.1/DTD/svg11.dtd"><svg height="200" node-id="1" sillyvg="true" template-height="200" template-width="620" version="1.1" viewBox="0 0 620 200" width="620" xmlns="http://www.w3.org/2000/svg" xmlns:xlink="http://www.w3.org/1999/xlink"><defs node-id="45"><linearGradient gradientUnits="objectBoundingBox" id="linearGradient-1" node-id="5" spreadMethod="pad" x1="1" x2="0.5" y1="0.28385538" y2="0.6012828"><stop offset="0" stop-color="#a3b1bf" stop-opacity="0"></stop><stop offset="1" stop-color="#a3b1bf"></stop></linearGradient><linearGradient gradientUnits="objectBoundingBox" id="linearGradient-2" node-id="8" spreadMethod="pad" x1="-0.0000000000000001110223" x2="1" y1="0.5" y2="0.5"><stop offset="0" stop-color="#a3b1bf" stop-opacity="0"></stop><stop offset="1" stop-color="#a3b1bf"></stop></linearGradient><linearGradient gradientUnits="objectBoundingBox" id="linearGradient-3" node-id="11" spreadMethod="pad" x1="1" x2="0.027705021" y1="0.5" y2="0.5"><stop offset="0" stop-color="#a3b1bf" stop-opacity="0"></stop><stop offset="1" stop-color="#a3b1bf"></stop></linearGradient></defs><g node-id="64"><g node-id="65"><g node-id="66"><path d="M 184.42 62.54 L 183.74 61.73 L 182.94 61.06 L 182.02 60.60 L 180.96 60.43 L 179.95 60.53 L 178.98 60.80 L 178.29 61.15 L 178.12 60.43 L 177.50 59.11 L 176.38 57.95 L 174.96 57.16 L 173.34 56.86 L 171.94 57.03 L 170.69 57.53 L 169.64 58.34 L 168.89 59.46 L 168.69 59.92 L 167.27 59.80 L 166.28 60.04 L 165.53 60.66 L 165.02 61.53 L 164.76 62.54 L 184.42 62.54 Z M 173.26 54.62 L 175.15 54.89 L 176.85 55.63 L 178.31 56.79 L 179.43 58.33 L 180.26 58.28 L 181.71 58.44 L 183.02 58.87 L 184.22 59.57 L 185.25 60.50 L 186.06 61.62 L 186.65 62.96 L 186.67 63.05 L 186.67 64.64 L 148.93 64.64 L 148.93 62.54 L 162.61 62.54 L 162.85 61.26 L 163.35 60.15 L 164.12 59.18 L 165.09 58.42 L 166.19 57.92 L 167.47 57.68 L 168.60 56.39 L 169.98 55.43 L 171.54 54.83 L 173.26 54.62 Z M 155.02 58.28 L 155.02 60.34 L 142.84 60.34 L 142.84 58.28 L 155.02 58.28 Z" fill="#a3b1bf" fill-rule="evenodd" group-id="1,2,3" id="cloud4-copy" node-id="18" stroke="none" target-height="10.013111" target-width="43.835617" target-x="142.83865" target-y="54.62405"></path><path d="M 98.59 131.91 L 97.91 131.11 L 97.10 130.43 L 96.18 129.98 L 95.12 129.80 L 94.11 129.90 L 93.14 130.18 L 92.45 130.53 L 92.28 129.80 L 91.66 128.48 L 90.54 127.32 L 89.12 126.53 L 87.50 126.23 L 86.10 126.41 L 84.85 126.90 L 83.80 127.72 L 83.05 128.83 L 82.85 129.29 L 81.44 129.18 L 80.44 129.41 L 79.69 130.03 L 79.18 130.91 L 78.92 131.91 L 98.59 131.91 Z M 87.42 124.00 L 89.31 124.26 L 91.02 125.00 L 92.47 126.17 L 93.59 127.70 L 94.42 127.65 L 95.87 127.81 L 97.18 128.24 L 98.38 128.95 L 99.41 129.88 L 100.22 131.00 L 100.81 132.34 L 100.84 132.43 L 100.84 134.01 L 63.09 134.01 L 63.09 131.91 L 76.77 131.91 L 77.02 130.64 L 77.52 129.53 L 78.28 128.56 L 79.25 127.80 L 80.36 127.30 L 81.64 127.05 L 82.77 125.76 L 84.14 124.81 L 85.70 124.21 L 87.42 124.00 Z M 69.18 127.65 L 69.18 129.71 L 57.00 129.71 L 57.00 127.65 L 69.18 127.65 Z" fill="#a3b1bf" fill-rule="evenodd" group-id="1,2,3" id="cloud3" node-id="19" stroke="none" target-height="10.013107" target-width="43.835617" target-x="57" target-y="124"></path><path d="M 560.59 131.91 L 559.91 131.11 L 559.10 130.43 L 558.18 129.98 L 557.12 129.80 L 556.11 129.90 L 555.14 130.18 L 554.45 130.53 L 554.28 129.80 L 553.66 128.48 L 552.54 127.32 L 551.12 126.53 L 549.50 126.23 L 548.10 126.41 L 546.85 126.90 L 545.80 127.72 L 545.05 128.83 L 544.85 129.29 L 543.44 129.18 L 542.44 129.41 L 541.69 130.03 L 541.18 130.91 L 540.92 131.91 L 560.59 131.91 Z M 549.42 124.00 L 551.31 124.26 L 553.02 125.00 L 554.47 126.17 L 555.59 127.70 L 556.42 127.65 L 557.87 127.81 L 559.18 128.24 L 560.38 128.95 L 561.41 129.88 L 562.22 131.00 L 562.81 132.34 L 562.84 132.43 L 562.84 134.01 L 525.09 134.01 L 525.09 131.91 L 538.77 131.91 L 539.02 130.64 L 539.52 129.53 L 540.28 128.56 L 541.25 127.80 L 542.36 127.30 L 543.64 127.05 L 544.77 125.76 L 546.14 124.81 L 547.70 124.21 L 549.42 124.00 Z M 531.18 127.65 L 531.18 129.71 L 519.00 129.71 L 519.00 127.65 L 531.18 127.65 Z" fill="#a3b1bf" fill-rule="evenodd" group-id="1,2,3" id="cloud3" node-id="20" stroke="none" target-height="10.013107" target-width="43.83557" target-x="519" target-y="124"></path><g node-id="67"><path d="M 468.62 29.18 L 464.86 35.39 L 461.00 40.75 L 457.07 45.34 L 453.04 49.22 L 448.92 52.46 L 444.69 55.11 L 440.34 57.20 L 435.85 58.76 L 431.18 59.81 L 426.30 60.34 L 421.17 60.33 L 415.76 59.77 L 410.03 58.60 L 403.94 56.77 L 397.45 54.24 L 391.75 51.29 L 387.45 48.50 L 384.28 45.87 L 381.51 42.82 L 379.69 40.01 L 378.65 37.37 L 378.17 34.59 L 378.26 32.00 L 378.89 29.53 L 379.99 27.21 L 381.46 25.08 L 383.33 23.13 L 385.47 21.44 L 387.79 20.05 L 390.32 18.94 L 392.96 18.16 L 395.57 17.77 L 398.17 17.76 L 400.71 18.16 L 403.05 19.02 L 405.22 20.36 L 407.05 22.11 L 408.58 24.45 L 409.81 27.52 L 410.48 30.77 L 410.68 34.88 L 410.27 40.03 L 409.33 45.10 L 407.61 51.25 L 404.94 58.68 L 402.65 63.64 L 399.91 68.20 L 396.71 72.40 L 393.03 76.26 L 388.84 79.79 L 384.39 82.79 L 379.45 85.41 L 373.96 87.62 L 367.89 89.43 L 361.15 90.79 L 354.67 91.55 L 347.60 91.83 L 339.90 91.57 L 331.49 90.73 L 322.33 89.25" fill="none" group-id="1,2,3,4" id="Path-4" node-id="21" stroke="url(#linearGradient-1)" stroke-linecap="round" stroke-width="2.9999998" target-height="74.07016" target-width="146.28995" target-x="322.3278" target-y="17.75684"></path></g><g node-id="68"><path d="M 419.00 76.95 L 419.48 76.85 L 419.86 76.59 L 420.12 76.21 L 420.21 75.74 L 420.21 74.21 L 420.12 73.74 L 419.86 73.36 L 419.48 73.10 L 419.00 73.00 L 418.52 73.10 L 418.14 73.36 L 417.88 73.74 L 417.79 74.21 L 417.79 75.74 L 417.88 76.21 L 418.14 76.59 L 418.52 76.85 L 419.00 76.95 L 419.00 76.95 Z M 419.00 89.05 L 418.52 89.15 L 418.14 89.41 L 417.88 89.79 L 417.79 90.26 L 417.79 91.79 L 417.88 92.26 L 418.14 92.64 L 418.52 92.90 L 419.00 93.00 L 419.48 92.90 L 419.86 92.64 L 420.12 92.26 L 420.21 91.79 L 420.21 90.26 L 420.12 89.79 L 419.86 89.41 L 419.48 89.15 L 419.00 89.05 L 419.00 89.05 Z M 427.79 81.79 L 426.26 81.79 L 425.79 81.88 L 425.41 82.14 L 425.15 82.52 L 425.05 83.00 L 425.15 83.48 L 425.41 83.86 L 425.79 84.12 L 426.26 84.21 L 427.79 84.21 L 428.26 84.12 L 428.64 83.86 L 428.90 83.48 L 429.00 83.00 L 428.90 82.52 L 428.64 82.14 L 428.26 81.88 L 427.79 81.79 L 427.79 81.79 Z M 412.95 83.00 L 412.85 82.52 L 412.59 82.14 L 412.21 81.88 L 411.74 81.79 L 410.21 81.79 L 409.74 81.88 L 409.36 82.14 L 409.10 82.52 L 409.00 83.00 L 409.10 83.48 L 409.36 83.86 L 409.74 84.12 L 410.21 84.21 L 411.74 84.21 L 412.21 84.12 L 412.59 83.86 L 412.85 83.48 L 412.95 83.00 Z M 425.00 87.28 L 424.59 87.01 L 424.14 86.92 L 423.68 87.01 L 423.28 87.28 L 423.01 87.68 L 422.92 88.14 L 423.01 88.59 L 423.28 89.00 L 424.35 90.07 L 424.76 90.34 L 425.21 90.43 L 425.67 90.34 L 426.07 90.07 L 426.34 89.67 L 426.43 89.21 L 426.34 88.76 L 426.07 88.35 L 425.00 87.28 L 425.00 87.28 Z M 413.00 78.72 L 413.41 78.99 L 413.86 79.08 L 414.32 78.99 L 414.72 78.72 L 414.99 78.32 L 415.08 77.86 L 414.99 77.41 L 414.72 77.01 L 413.65 75.93 L 413.24 75.66 L 412.79 75.57 L 412.33 75.66 L 411.93 75.93 L 411.66 76.33 L 411.57 76.79 L 411.66 77.24 L 411.93 77.65 L 413.00 78.72 Z M 413.00 87.28 L 411.93 88.35 L 411.66 88.76 L 411.57 89.21 L 411.66 89.67 L 411.93 90.07 L 412.33 90.34 L 412.79 90.43 L 413.24 90.34 L 413.65 90.07 L 414.72 89.00 L 414.99 88.59 L 415.08 88.14 L 414.99 87.68 L 414.72 87.28 L 414.32 87.01 L 413.86 86.92 L 413.41 87.01 L 413.00 87.28 L 413.00 87.28 Z M 424.14 79.08 L 424.59 78.99 L 425.00 78.72 L 426.07 77.65 L 426.34 77.24 L 426.43 76.79 L 426.34 76.33 L 426.07 75.93 L 425.67 75.66 L 425.21 75.57 L 424.76 75.66 L 424.35 75.93 L 423.28 77.01 L 423.01 77.41 L 422.92 77.86 L 423.01 78.32 L 423.28 78.72 L 423.68 78.99 L 424.14 79.08 Z" fill="#a3b1bf" fill-opacity="0.40327382" fill-rule="nonzero" group-id="1,2,3,5" id="Shape" node-id="22" stroke="#a3b1bf" stroke-linecap="butt" stroke-opacity="0.40327382" stroke-width="1" target-height="19.999977" target-width="20" target-x="409" target-y="73"></path></g><g node-id="69"><path d="M 460.23 27.49 L 460.26 28.09 L 460.08 28.63 L 459.70 29.06 L 459.16 29.33 L 456.75 29.97 L 457.40 32.39 L 457.43 32.99 L 457.25 33.53 L 456.87 33.96 L 456.34 34.23 L 455.74 34.26 L 455.20 34.08 L 454.77 33.70 L 454.50 33.16 L 453.85 30.75 L 451.44 31.40 L 450.84 31.43 L 450.30 31.25 L 449.87 30.87 L 449.60 30.34 L 449.56 29.74 L 449.75 29.20 L 450.12 28.77 L 450.66 28.50 L 453.08 27.85 L 452.43 25.44 L 452.39 24.84 L 452.58 24.30 L 452.95 23.87 L 453.49 23.60 L 454.09 23.56 L 454.63 23.75 L 455.06 24.12 L 455.33 24.66 L 455.97 27.08 L 458.39 26.43 L 458.99 26.39 L 459.53 26.58 L 459.96 26.95 L 460.23 27.49 Z" fill="#a3b1bf" fill-opacity="0.40327382" fill-rule="nonzero" group-id="1,2,3,6" id="Combined-Shape-Copy-8" node-id="23" stroke="none" target-height="10.698441" target-width="10.698395" target-x="449.56354" target-y="23.563507"></path></g><g node-id="70"><path d="M 240.62 117.36 L 240.75 117.94 L 240.65 118.50 L 240.35 118.99 L 239.86 119.34 L 237.57 120.35 L 238.59 122.64 L 238.72 123.22 L 238.62 123.78 L 238.32 124.27 L 237.83 124.62 L 237.24 124.75 L 236.68 124.65 L 236.20 124.35 L 235.85 123.86 L 234.83 121.57 L 232.55 122.59 L 231.96 122.72 L 231.40 122.62 L 230.92 122.32 L 230.57 121.83 L 230.44 121.24 L 230.54 120.68 L 230.84 120.20 L 231.33 119.85 L 233.61 118.83 L 232.59 116.55 L 232.46 115.96 L 232.56 115.40 L 232.87 114.92 L 233.36 114.57 L 233.94 114.44 L 234.50 114.54 L 234.99 114.84 L 235.34 115.33 L 236.35 117.61 L 238.64 116.59 L 239.22 116.46 L 239.78 116.56 L 240.27 116.87 L 240.62 117.36 Z" fill="#a3b1bf" fill-opacity="0.40327382" fill-rule="nonzero" group-id="1,2,3,7" id="Combined-Shape-Copy-9" node-id="24" stroke="none" target-height="10.308838" target-width="10.308853" target-x="230.43768" target-y="114.43768"></path></g><g node-id="71"><path d="M 313.90 79.06 L 311.59 80.83 L 311.05 81.04 L 309.67 79.74 L 307.92 78.66 L 305.98 77.88 L 303.89 77.40 L 301.76 77.27 L 299.70 77.50 L 297.81 78.16 L 296.12 79.19 L 292.93 81.86 L 291.26 83.22 L 289.40 84.43 L 287.32 85.33 L 284.77 85.83 L 284.64 86.10 L 285.75 87.28 L 287.50 88.59 L 290.19 90.24 L 293.18 91.72 L 296.51 92.93 L 298.82 93.48 L 301.03 93.68 L 303.16 93.57 L 305.14 93.07 L 306.79 92.38 L 308.15 91.53 L 309.91 89.96 L 311.10 88.45 L 311.96 86.92 L 312.32 86.00 L 312.57 84.01 L 312.51 83.11 L 314.79 81.37 L 315.44 80.71 L 315.60 80.34 L 315.50 79.85 L 315.20 79.39 L 314.79 79.04 L 314.33 78.89 L 313.90 79.06 Z M 310.93 83.77 L 308.15 85.51 L 305.18 86.65 L 302.11 87.33 L 299.28 87.62 L 296.60 87.67 L 294.68 87.57 L 292.83 87.36 L 295.39 87.17 L 298.01 86.75 L 301.70 85.79 L 304.21 84.91 L 306.89 83.66 L 309.75 82.00 L 310.48 82.84 L 310.93 83.77 Z" fill="#a3b1bf" fill-rule="nonzero" group-id="1,2,3,8" id="Shape" node-id="25" stroke="none" target-height="16.412369" target-width="30.958008" target-x="284.64117" target-y="77.26955"></path></g><path d="M 341.04 111.19 L 340.63 111.00 L 340.26 111.24 L 339.12 112.81 L 337.98 113.83 L 335.56 115.18 L 334.10 115.92 L 332.86 116.92 L 332.23 117.87 L 331.83 119.12 L 331.69 120.78 L 331.85 122.99 L 330.31 123.24 L 329.15 123.29 L 328.00 123.21 L 328.00 125.08 L 329.68 124.99 L 331.14 124.74 L 333.60 123.96 L 334.90 123.35 L 336.02 122.62 L 336.15 122.52 L 337.69 121.07 L 338.83 119.58 L 339.72 118.04 L 340.25 116.88 L 340.66 115.69 L 340.39 117.90 L 339.67 119.90 L 338.51 121.73 L 337.00 123.31 L 335.25 124.54 L 333.23 125.45 L 335.13 125.90 L 336.78 125.99 L 338.51 125.68 L 339.97 124.96 L 341.24 123.76 L 342.21 122.11 L 342.79 120.18 L 343.00 117.87 L 342.86 115.96 L 342.48 114.18 L 341.85 112.53 L 341.04 111.19 L 341.04 111.19 L 341.04 111.19 Z" fill="#a3b1bf" fill-rule="evenodd" group-id="1,2,3" id="Path" node-id="26" stroke="none" target-height="14.990799" target-width="15" target-x="328" target-y="111.000946"></path><path d="M 367.61 115.82 L 375.84 138.82 L 367.61 138.82 L 367.61 115.82 Z M 263.96 52.65 L 262.96 130.65 L 238.03 63.19 L 263.96 52.65 Z M 335.71 26.65 L 341.02 40.65 L 297.79 40.65 L 335.71 26.65 Z" fill="#a3b1bf" fill-opacity="0.1499721" fill-rule="nonzero" group-id="1,2,3,9,11" id="Combined-Shape" node-id="28" stroke="none" target-height="112.167274" target-width="137.81613" target-x="238.02707" target-y="26.650076"></path><path d="M 262.00 39.00 L 294.82 39.00 L 336.53 23.82 L 342.04 39.00 L 369.00 39.00 L 369.00 113.38 L 379.01 141.00 L 368.84 141.00 L 366.00 141.00 L 366.00 42.00 L 265.00 42.00 L 265.00 141.00 L 262.00 141.00 L 262.00 132.70 L 235.84 60.47 L 262.00 50.95 L 262.00 39.00 Z M 369.00 120.68 L 369.00 137.00 L 375.02 137.00 L 369.00 120.68 Z M 262.00 54.30 L 239.91 62.34 L 262.00 122.94 L 262.00 54.30 Z M 338.88 39.00 L 334.75 27.82 L 304.03 39.00 L 338.88 39.00 Z" fill="#a3b1bf" fill-rule="evenodd" group-id="1,2,3,9" id="Combined-Shape" node-id="29" stroke="none" target-height="117.18265" target-width="143.17079" target-x="235.84322" target-y="23.817352"></path><path d="M 263.21 106.51 L 264.04 108.80 L 261.66 109.67 L 260.82 107.38 L 263.21 106.51 Z M 263.75 93.36 L 264.58 95.65 L 257.49 98.23 L 256.66 95.94 L 263.75 93.36 Z M 262.40 80.89 L 263.23 83.18 L 253.33 86.79 L 252.49 84.50 L 262.40 80.89 Z M 253.85 68.40 L 255.29 68.18 L 256.64 68.52 L 257.77 69.33 L 258.53 70.58 L 258.75 72.03 L 258.41 73.37 L 257.59 74.50 L 256.35 75.26 L 254.90 75.48 L 253.55 75.14 L 252.43 74.32 L 251.66 73.08 L 251.45 71.63 L 251.79 70.29 L 252.60 69.16 L 253.85 68.40 Z" fill="#a3b1bf" fill-opacity="0.4765625" fill-rule="evenodd" group-id="1,2,3,9,12" id="Combined-Shape" node-id="30" stroke="none" target-height="41.492355" target-width="13.130676" target-x="251.44812" target-y="68.18022"></path><path d="M 268.00 141.00 L 265.00 141.00 L 265.00 42.00 L 366.00 42.00 L 366.00 141.00 L 363.00 141.00 L 363.00 45.00 L 268.00 45.00 L 268.00 141.00 Z" fill="#a3b1bf" fill-opacity="0.24807012" fill-rule="nonzero" group-id="1,2,3,10,13" id="Combined-Shape" node-id="32" stroke="none" target-height="99" target-width="101" target-x="265" target-y="42"></path><path d="M 290.00 131.00 L 356.00 131.00 L 356.00 134.00 L 276.00 134.00 L 276.00 131.00 L 287.00 131.00 L 287.00 110.00 L 276.00 110.00 L 276.00 107.00 L 287.00 107.00 L 287.00 98.00 L 276.00 98.00 L 276.00 95.00 L 287.00 95.00 L 287.00 86.00 L 276.00 86.00 L 276.00 83.00 L 287.00 83.00 L 287.00 74.00 L 276.00 74.00 L 276.00 71.00 L 287.00 71.00 L 287.00 52.00 L 290.00 52.00 L 290.00 59.00 L 356.00 59.00 L 356.00 62.00 L 290.00 62.00 L 290.00 71.00 L 356.00 71.00 L 356.00 74.00 L 290.00 74.00 L 290.00 83.00 L 295.00 83.00 L 295.00 86.00 L 290.00 86.00 L 290.00 95.00 L 356.00 95.00 L 356.00 98.00 L 290.00 98.00 L 290.00 107.00 L 356.00 107.00 L 356.00 110.00 L 290.00 110.00 L 290.00 119.00 L 333.00 119.00 L 333.00 122.00 L 290.00 122.00 L 290.00 131.00 Z M 356.00 119.00 L 356.00 122.00 L 342.00 122.00 L 342.00 119.00 L 356.00 119.00 Z M 356.00 83.00 L 356.00 86.00 L 312.00 86.00 L 312.00 83.00 L 356.00 83.00 Z" fill="#a3b1bf" fill-opacity="0.24807012" fill-rule="nonzero" group-id="1,2,3,10,14" id="Combined-Shape" node-id="33" stroke="none" target-height="82" target-width="80" target-x="276" target-y="52"></path><path d="M 282.50 60.00 L 282.30 60.98 L 281.77 61.77 L 280.98 62.30 L 280.00 62.50 L 279.02 62.30 L 278.23 61.77 L 277.70 60.98 L 277.50 60.00 L 277.70 59.02 L 278.23 58.23 L 279.02 57.70 L 280.00 57.50 L 280.98 57.70 L 281.77 58.23 L 282.30 59.02 L 282.50 60.00 Z" fill="none" group-id="1,2,3,10,15" id="Oval-6" node-id="34" stroke="#a3b1bf" stroke-linecap="butt" stroke-opacity="0.3" stroke-width="3" target-height="5" target-width="5" target-x="277.5" target-y="57.5"></path><path d="M 282.50 121.00 L 282.30 121.98 L 281.77 122.77 L 280.98 123.30 L 280.00 123.50 L 279.02 123.30 L 278.23 122.77 L 277.70 121.98 L 277.50 121.00 L 277.70 120.02 L 278.23 119.23 L 279.02 118.70 L 280.00 118.50 L 280.98 118.70 L 281.77 119.23 L 282.30 120.02 L 282.50 121.00 Z" fill="none" group-id="1,2,3,10,16" id="Oval-6-Copy" node-id="35" stroke="#a3b1bf" stroke-linecap="butt" stroke-opacity="0.3" stroke-width="3" target-height="5" target-width="5" target-x="277.5" target-y="118.5"></path><path d="M 211.00 137.00 L 262.00 137.00 L 262.00 141.00 L 211.00 141.00 Z" fill="url(#linearGradient-2)" fill-rule="evenodd" group-id="1,2,3" id="Rectangle-34" node-id="36" stroke="none" target-height="4" target-width="51" target-x="211" target-y="137"></path><path d="M 376.00 137.00 L 421.00 137.00 L 421.00 141.00 L 376.00 141.00 Z" fill="url(#linearGradient-3)" fill-rule="evenodd" group-id="1,2,3" id="Rectangle-34-Copy" node-id="37" stroke="none" target-height="4" target-width="45" target-x="376" target-y="137"></path></g><text align="center" editable="true" ellipsis="false" fill="#a3b1bf" flags="1" font-family="'Noto Sans CJK SC'" font-size="16" font-stretch="normal" font-style="normal" font-weight="400" group-id="1,2" height="23.68" id="暂无数据" letter-spacing="0" node-id="38" stroke="none" target-x="281" target-y="144.14757" vertical-align="center" width="64" x="281" xml:space="preserve" y="162.70757">暂无数据</text><text align="center" editable="true" ellipsis="false" fill="#a3b1bf" flags="1" font-family="'Noto Sans CJK SC'" font-size="12" font-stretch="normal" font-style="normal" font-weight="400" group-id="1,2" height="17.76" id="十分遗憾，查询无果，请输入正确的ID进行" letter-spacing="0" node-id="41" stroke="none" target-x="187.342" target-y="175.08" vertical-align="center" width="251.76001" x="241.222" xml:space="preserve" y="189">别灰心，时间会证明一切！</text></g></g></svg>